<?xml version="1.0" encoding="UTF-8"?>
<!DOCTYPE svg PUBLIC "-//W3C//DTD SVG 1.0//EN" "http://www.w3.org/TR/2001/REC-SVG-20010904/DTD/svg10.dtd">
<!-- Creator: CorelDRAW -->
<svg xmlns="http://www.w3.org/2000/svg" xml:space="preserve" width="4.34725in" height="0.746335in" version="1.0" style="shape-rendering:geometricPrecision; text-rendering:geometricPrecision; image-rendering:optimizeQuality; fill-rule:evenodd; clip-rule:evenodd"
viewBox="0 0 9188.97 1577.56"
 xmlns:xlink="http://www.w3.org/1999/xlink"
 xmlns:xodm="http://www.corel.com/coreldraw/odm/2003">
 <defs>
  <style type="text/css">
   <![CDATA[
    .fil0 {fill:#08f7ff}
    .fil1 {fill:#0890ff}
    #Layer_x0020_1{width: 100px}
   ]]>
  </style>
 </defs>
 <g id="Layer_x0020_1">
  <metadata id="CorelCorpID_0Corel-Layer"/>
  <path class="fil0" d="M9188.97 1490.18l-416.5 -64.89 0 -1379.74 416.5 0 0 1444.63zm-763.29 -118.91l-930.12 -144.89c-45.55,-81.86 -68.39,-172.01 -68.39,-270.46 0,-160.89 54.95,-295.02 164.86,-402.39 109.55,-107.38 252.35,-160.89 428.42,-160.89 177.15,0 319.61,52.79 427.34,158.71 107.74,105.94 161.61,238.62 161.61,398.42 0,160.89 -54.59,295.02 -163.77,402.76 -6.52,6.44 -13.17,12.68 -19.96,18.73zm-1082.03 -168.56l-63.36 -9.87c19.61,-2.9 40.73,-7.15 63.36,-12.77l0 22.64zm-195.95 -30.52l-427.28 -66.57 0.67 -77.39 0 -340.57 -160.53 0 0 -273.32 160.53 0 6.51 -351.42 401.31 -6.51 0 357.93 214.75 0 0 273.32 -214.75 0 0 397.33c0,42.76 6.21,71.76 18.8,87.2zm-691.99 -107.8l-423.01 -65.9 0 -584.15 423.01 0 0 650.05zm-645.71 -100.59l-423.01 -65.89 0 -84.07c0,-56.04 -8.31,-91.47 -25.67,-107.01 -17.35,-15.55 -38.68,-23.5 -64.71,-23.5 -76.65,0 -114.97,53.87 -114.97,161.24l0 21.34 -423.01 -65.89 0 -385.67 392.64 0 0 152.56c57.84,-116.06 161.24,-174.26 309.84,-174.26 78.46,0 144.26,15.18 198.49,45.19 53.87,30.01 92.56,68.7 115.69,116.42 23.14,47.73 34.71,130.51 34.71,248.38l0 161.16zm-1274.2 -198.5l-1058.84 -164.95 0 -554.79 423.01 0 0 496.4c76.29,-99.43 176.07,-149.32 298.99,-149.32 62.19,0 116.78,10.84 163.78,32.17 47,21.69 83.15,49.53 108.82,83.16 25.31,33.99 42.3,66.88 51.34,98.7 7.83,28.73 12.13,81.6 12.89,158.62zm-1325.85 -206.54l-667.87 -104.05c77.94,-41.38 167.67,-62.06 269.29,-62.06 144.98,0 262.84,40.49 354.31,121.47 15.94,14.24 30.7,29.11 44.27,44.64zm-2190.39 -341.23l-1019.55 -158.83 0 -13.14 1019.55 0 0 171.97zm5436.16 -217.52l0 334.07 -423.01 0 0 -334.07 423.01 0zm1561.5 1258.18c65.08,0 105.21,-33.99 119.31,-102.32 14.46,-67.97 21.69,-139.2 21.69,-213.31 0,-101.23 -10.13,-173.9 -30.37,-218.37 -20.61,-44.47 -56.76,-66.88 -109.55,-66.88 -48.45,0 -83.88,23.13 -106.29,69.05 -22.42,45.91 -33.63,121.47 -33.63,226.69 0,123.65 11.58,205.36 34.71,245.13 23.14,40.13 57.84,60.02 104.12,60.02z"/>
  <path class="fil1" d="M9188.97 1553.59l-416.5 -64.89 0 67.16 416.5 0 0 -2.27zm-763.29 -118.91l-930.12 -144.89c23.72,42.61 53.58,82.97 89.6,121.09 105.21,111 246.93,166.68 425.54,166.68 170.31,0 308.34,-47.63 414.98,-142.88zm-1082.03 -168.56l-63.36 -9.87c-20.79,3.06 -39.9,4.59 -57.39,4.59 -21.69,0 -43.02,-5.06 -63.27,-15.55 -4.47,-2.2 -8.45,-5.43 -11.93,-9.7l-427.28 -66.57 -0.42 48.79c0,122.2 30.73,211.5 91.47,267.18 61.1,56.04 156.55,83.88 286.7,83.88 80.26,0 162.33,-7.96 245.49,-23.86l0 -278.9zm-887.95 -138.33l-423.01 -65.9 0 493.97 423.01 0 0 -428.07zm-645.71 -100.59l-423.01 -65.89 0 594.55 423.01 0 0 -528.66zm-628.36 -97.89l-423.01 -65.89 0 692.44 423.01 0 0 -626.55zm-645.84 -100.61l-1058.84 -164.95 0 892.11 423.01 0 0 -609.56c0,-58.93 1.81,-97.25 5.43,-115.69 3.25,-18.44 15.9,-36.16 37.24,-53.51 21.69,-17.35 46.64,-26.03 75.56,-26.03 37.23,0 62.18,11.21 75.2,33.26 13.02,22.42 19.52,63.27 19.52,122.56l0 648.97 423.01 0 0 -701.4c0,-8.87 -0.04,-17.45 -0.12,-25.76zm-1325.85 -206.54l-667.87 -104.05c-47.4,25.17 -90.43,57.99 -129.13,98.46 -102.32,107.02 -153.3,242.96 -153.3,408.19 0,161.61 51.34,294.29 154.38,397.7 102.67,103.4 236.45,155.1 400.95,155.1 147.15,0 264.64,-39.77 353.59,-118.95 88.58,-79.17 141.36,-181.86 158.36,-308.03l-360.09 -30.73c-14.11,107.02 -59.29,160.53 -135.22,160.53 -51.7,0 -87.85,-20.97 -108.82,-63.27 -20.97,-42.3 -31.46,-107.74 -31.46,-195.6 0,-102.32 10.49,-173.9 31.46,-215.12 20.6,-41.22 53.87,-61.82 99.42,-61.82 70.5,0 113.89,57.12 129.44,171.37l370.95 -30.73c-11.04,-102.31 -48.65,-189.85 -112.64,-263.04zm-2190.39 -341.23l-1019.55 -158.83 0 333.95 299.36 0 0 1099.81 420.83 0 0 -1099.81 299.35 0 0 -175.12zm737.91 886.63l392.63 26.39c-23.13,106.29 -82.79,196.69 -178.59,271.52 -95.45,74.84 -224.88,112.08 -387.94,112.08 -181.5,0 -326.12,-52.43 -434.22,-157.27 -108.1,-104.85 -161.97,-235 -161.97,-390.1 0,-161.25 53.14,-297.19 159.8,-407.82 106.65,-111 249.1,-166.31 426.98,-166.31 172.1,0 311.29,52.06 417.58,156.55 106.29,104.48 159.45,246.57 159.45,426.25 0,14.83 -0.37,35.43 -1.09,61.46l-720.19 0c1.44,68.33 13.37,118.95 36.15,152.21 22.42,32.9 65.44,49.52 129.07,49.52 92.2,0 146.06,-44.83 162.33,-134.49zm-30.37 -279.84c-0.72,-71.94 -15.19,-120.39 -43.39,-144.97 -28.2,-24.95 -63.27,-37.24 -105.2,-37.24 -99.06,0 -148.59,60.74 -148.59,182.21l297.19 0z"/>
 </g>
</svg>
