<?xml version="1.0" encoding="UTF-8"?>
<!DOCTYPE svg PUBLIC "-//W3C//DTD SVG 1.0//EN" "http://www.w3.org/TR/2001/REC-SVG-20010904/DTD/svg10.dtd">
<!-- Creator: CorelDRAW -->
<?xml-stylesheet href="usericon.css" type="text/css"?>
<svg xmlns="http://www.w3.org/2000/svg" xml:space="preserve" width="2.05278in" height="2.05278in" version="1.0" style="shape-rendering:geometricPrecision; text-rendering:geometricPrecision; image-rendering:optimizeQuality; fill-rule:evenodd; clip-rule:evenodd"
viewBox="0 0 573.17 573.17"
 xmlns:xlink="http://www.w3.org/1999/xlink"
 xmlns:xodm="http://www.corel.com/coreldraw/odm/2003">
 <defs>
   <clipPath id="id0">
    <rect width="573.17" height="573.17"/>
   </clipPath>
 </defs>
 <g id="Layer_x0020_1">
  <metadata id="CorelCorpID_0Corel-Layer"/>
  <g style="clip-path:url(#id0)">
   <image x="-0" y="0" width="573.17" height="573.17" xlink:href="usericon_Images\usericon_ImgID1.png"/>
  </g>
  <path style="fill: transparent" class="fil0" d="M276.58 133.56c24.19,-2.67 49,4.36 67.97,18.18l6.81 5.37c18.22,14.58 31.56,40.25 33.98,65.29 5.59,57.73 -37.43,103.44 -88.61,108.6 -57.96,5.84 -103.72,-37.46 -108.89,-88.7 -1.55,-15.36 0.56,-30.1 5.28,-43.46 2.98,-8.44 7.75,-17.51 12.85,-24.45 9.14,-12.45 17.75,-20.22 32.62,-29.03 10.21,-6.05 24.14,-10.26 37.99,-11.79zm-189.62 305.42c2.98,-4.43 22.84,-20.43 28.06,-24.41 47.95,-36.6 110.5,-57.07 171.56,-57.07 50.31,0 99.12,13.46 139.22,36.13 7.61,4.3 15.27,8.78 21.87,13.52l20.04 14.97c3.3,2.61 6.14,5.44 9.42,8.09 2.14,1.73 7.74,6.79 9.08,8.78 2.03,-1 3.86,-4.37 5.16,-6.2 25.18,-35.24 40.67,-75.77 45.5,-120.06 5.92,-54.3 -7.16,-105.03 -28.8,-145.63 -5.05,-9.47 -11.12,-19.04 -17.03,-27.12 -5.96,-8.15 -9.07,-11.53 -14.63,-18.49 -2.94,-3.68 -13.49,-14.49 -16.18,-16.93 -1.03,-0.94 -1.78,-1.6 -2.8,-2.53 -7.54,-6.88 -12.9,-11.59 -21.14,-17.68 -4.26,-3.15 -8.46,-5.9 -13.06,-9.01 -17,-11.53 -39.65,-21.89 -59.89,-28.42 -79.12,-25.53 -163.41,-9.07 -226.3,37.26l-20.96 17.48c-5.74,5.47 -8.09,7.43 -13.93,13.87 -8.75,9.65 -11.38,12.55 -19.91,24.23 -34.08,46.62 -52.49,108.7 -46.03,172.61 2.66,26.33 9.08,48.27 17.81,70.5 6.73,17.15 17.09,34.76 27.58,49.69 1.36,1.94 3.28,5.42 5.32,6.43z"/>
  <path style="fill: #0890ff" class="fil1" d="M86.96 438.97c-2.04,-1.01 -3.96,-4.49 -5.32,-6.43 -10.49,-14.93 -20.85,-32.54 -27.58,-49.69 -8.73,-22.23 -15.15,-44.17 -17.81,-70.5 -6.46,-63.91 11.95,-125.99 46.03,-172.61 8.53,-11.67 11.16,-14.57 19.91,-24.23 5.83,-6.44 8.18,-8.4 13.93,-13.87l20.96 -17.48c62.89,-46.33 147.18,-62.79 226.3,-37.26 20.24,6.53 42.88,16.89 59.89,28.42 4.6,3.12 8.79,5.86 13.06,9.01 8.24,6.09 13.6,10.8 21.14,17.68 1.02,0.93 1.77,1.6 2.8,2.53 2.69,2.44 13.24,13.25 16.18,16.93 5.55,6.95 8.67,10.33 14.63,18.49 5.91,8.08 11.98,17.65 17.03,27.12 21.64,40.6 34.72,91.33 28.8,145.63 -4.83,44.29 -20.32,84.82 -45.5,120.06 -1.31,1.83 -3.13,5.2 -5.16,6.2 -1.34,-1.99 -6.94,-7.05 -9.08,-8.78 -3.27,-2.64 -6.12,-5.48 -9.42,-8.09l-20.04 -14.97c-6.6,-4.74 -14.26,-9.21 -21.87,-13.52 -40.1,-22.67 -88.91,-36.13 -139.22,-36.13 -61.06,0 -123.62,20.47 -171.56,57.07 -5.23,3.99 -25.09,19.98 -28.06,24.41zm191.95 -437.67c-20.42,0 -43.58,3.91 -62.74,8.62 -26.6,6.53 -52.74,17.73 -75.54,31.38 -10.14,6.07 -32.38,21.22 -41.44,30.11l-4.73 4.02c-1.85,1.5 -2.83,3.02 -4.58,4.55 -5.85,5.16 -7.59,7.89 -10.99,11.1l-4.3 4.46c-0.93,1.08 -1.29,1.25 -2.14,2.42l-8.18 9.7c-8.72,10.48 -22.79,31.23 -28.67,42.88l-11.64 24.15c-16.72,36.92 -23.1,78.95 -22.64,119.71 0.65,57.21 22.26,116.54 54.2,159.73 5.17,6.99 12.07,15.86 17.77,22.2l15.59 15.98c0.77,0.69 1.51,1.25 2.2,1.99 2.43,2.58 1.14,1.68 4.47,4.29l7.03 6.27c1.46,1.32 3.35,2.63 5.08,4.07 7.74,6.43 23.3,17.43 31.52,22.14 15.66,8.98 19.15,10.77 35.5,18.17 37.02,16.75 78.86,23.06 119.71,22.64 49.46,-0.51 98.86,-16.5 138.16,-39.98 7.62,-4.55 14.78,-9.22 21.56,-14.22 1.76,-1.29 3.54,-2.51 5.05,-3.7l19.56 -16.21 23.99 -24.72c9.82,-11.74 20.76,-25.85 28.34,-39.02 2.06,-3.58 4.69,-7.71 6.53,-11.36 13.91,-27.56 21.68,-44.89 28.63,-78.32 16.38,-78.78 -2.49,-162.62 -48.55,-225.26 -2.99,-4.07 -10.3,-13.73 -13.78,-17.42l-19.58 -20.77c-0.77,-0.69 -1.51,-1.25 -2.2,-1.99l-9.07 -8.42c-4.3,-3.59 -13.42,-11.25 -17.58,-14.01 -3.66,-2.43 -6.81,-4.9 -10.54,-7.36 -6.21,-4.1 -15.79,-10.23 -22.26,-13.51 -3.97,-2.01 -8.09,-4.22 -11.82,-6.06 -20.21,-9.99 -43.47,-17.78 -66.5,-22.56 -22.32,-4.63 -42.49,-5.67 -65.42,-5.66z"/>
  <path style="fill: #0890ff" class="fil1" d="M276.58 133.56c-13.86,1.53 -27.78,5.74 -37.99,11.79 -14.88,8.81 -23.48,16.58 -32.62,29.03 -5.1,6.94 -9.86,16.02 -12.85,24.45 -4.72,13.36 -6.83,28.1 -5.28,43.46 5.17,51.24 50.93,94.54 108.89,88.7 51.17,-5.16 94.2,-50.87 88.61,-108.6 -2.43,-25.04 -15.76,-50.71 -33.98,-65.29l-6.81 -5.37c-18.97,-13.82 -43.78,-20.85 -67.97,-18.18z"/>
  <path style="fill: #0890ff" class="fil2" d="M278.9 1.3c22.93,-0 43.1,1.03 65.42,5.66 23.03,4.78 46.29,12.58 66.5,22.56 3.73,1.84 7.85,4.06 11.82,6.06 6.47,3.28 16.05,9.4 22.26,13.51 3.73,2.46 6.87,4.93 10.54,7.36 4.17,2.76 13.28,10.42 17.58,14.01l9.07 8.42c0.69,0.74 1.43,1.3 2.2,1.99l19.58 20.77c3.48,3.69 10.79,13.35 13.78,17.42 46.05,62.65 64.92,146.48 48.55,225.26 -6.95,33.42 -14.72,50.76 -28.63,78.32 -1.84,3.65 -4.47,7.78 -6.53,11.36 -7.59,13.17 -18.52,27.28 -28.34,39.02l-23.99 24.72 -19.56 16.21c-1.51,1.19 -3.29,2.41 -5.05,3.7 -6.78,4.99 -13.94,9.67 -21.56,14.22 -39.3,23.48 -88.7,39.47 -138.16,39.98 -40.85,0.42 -82.68,-5.89 -119.71,-22.64 -16.35,-7.4 -19.84,-9.19 -35.5,-18.17 -8.22,-4.71 -23.78,-15.71 -31.52,-22.14 -1.73,-1.44 -3.62,-2.75 -5.08,-4.07l-7.03 -6.27c-3.33,-2.61 -2.04,-1.71 -4.47,-4.29 -0.69,-0.74 -1.43,-1.3 -2.2,-1.99l-15.59 -15.98c-5.7,-6.34 -12.6,-15.21 -17.77,-22.2 -31.94,-43.19 -53.55,-102.52 -54.2,-159.73 -0.46,-40.76 5.93,-82.78 22.64,-119.71l11.64 -24.15c5.88,-11.64 19.95,-32.4 28.67,-42.88l8.18 -9.7c0.86,-1.17 1.21,-1.34 2.14,-2.42l4.3 -4.46c3.4,-3.2 5.14,-5.94 10.99,-11.1 1.74,-1.53 2.73,-3.05 4.58,-4.55l4.73 -4.02c9.06,-8.89 31.29,-24.04 41.44,-30.11 22.8,-13.64 48.93,-24.84 75.54,-31.38 19.16,-4.71 42.32,-8.62 62.74,-8.62zm7.3 -0.92c-1.19,0.24 -7.08,0 -8.75,0 -3.47,0 -5.63,0.3 -8.76,0.38 -5.45,0.14 -11.17,0.95 -16.36,1.53 -19.82,2.2 -39.46,7 -58.28,13.27l-13.05 4.83c-7.33,2.93 -14.61,5.96 -21.66,9.55 -1.25,0.64 -1.78,1.07 -2.91,1.66 -7.65,3.98 -15.7,8.15 -22.84,12.94l-15.83 10.81c-1.95,1.35 -3.42,2.44 -5.22,3.91l-28.9 25.14 -10.65 11.42c-4.99,5.62 -9.51,11.5 -14.25,17.34 -5.35,6.6 -10.14,13.89 -14.66,21.12 -3.43,5.48 -6.94,11.01 -9.82,16.82 -0.96,1.94 -1.98,4.22 -3.06,6.08 -4.34,7.47 -7.9,16.59 -11.13,24.65 -9.95,24.85 -18.6,60.79 -19.3,88.03l-0.38 25.88c0,3.47 0.3,5.63 0.38,8.76 0.14,5.45 0.95,11.17 1.53,16.36 1.68,15.12 4.8,30.1 9,44.66 2.7,9.34 5.55,17.79 9.1,26.67l6.64 15.44c0.53,1.06 0.82,2 1.39,3.18l9.4 17.62c5.84,10.7 13.69,22.7 21.44,32.22l20.77 24.14c0.81,0.81 1.54,1.44 2.28,2.29 0.89,1.01 1.02,1.53 2.09,2.47l11.42 10.65c14.72,13.08 38.03,30.18 55.27,38.73 1.94,0.96 4.22,1.98 6.08,3.06 1.79,1.04 3.76,2.15 5.73,3.02 2.11,0.94 4.22,1.72 6.34,2.79 14.42,7.28 38.6,14.72 53.57,17.98 15.33,3.34 31.01,6.22 47.04,6.63 1.93,0.05 2.12,0.37 4.17,0.4 26.48,0.33 51.57,-0.95 77.28,-7.24 18.46,-4.52 36.26,-10.16 53.4,-18.15l9.14 -4.18c1.25,-0.64 1.78,-1.07 2.91,-1.66 7.65,-3.98 15.7,-8.15 22.84,-12.94l10.73 -7.16c7.85,-5.35 15.26,-11.35 22.49,-17.47 1.07,-0.91 1.41,-1.1 2.45,-2.12 0.99,-0.96 1.5,-1.12 2.48,-2.09l15.98 -15.61c13.59,-13.59 24.69,-29.39 35.38,-45.31 3.41,-5.08 7.06,-11.25 9.82,-16.82l8.88 -18.14c12.73,-27.25 23.81,-69.47 24.61,-100.61l0.38 -8.75c0,-2.81 0.28,-6.53 0.14,-8.55l-0.52 -17.33c-0.22,-8.7 -2.3,-24.18 -3.84,-31.93 -1.95,-9.76 -3.93,-19.57 -6.68,-29.09 -1.41,-4.89 -2.78,-9.14 -4.27,-13.62l-7.28 -19.36 -21.69 -41.11c-1.17,-1.76 -2.26,-3.57 -3.43,-5.32 -3.56,-5.33 -7.25,-10.75 -11.3,-15.72 -1.4,-1.71 -2.44,-3.22 -3.84,-4.92 -2.69,-3.27 -5.24,-6.69 -8.18,-9.71 -2.94,-3.02 -4.6,-5.37 -8.75,-9.52l-4.38 -4.76c-0.94,-0.83 -1.34,-0.95 -2.29,-1.89l-9.13 -8.76c-1,-0.89 -1.45,-1.08 -2.47,-2.1 -1,-0.99 -1.49,-1.18 -2.48,-2.09 -7.04,-6.54 -14.97,-11.93 -22.77,-17.57 -7.07,-5.11 -14.32,-9.53 -21.97,-13.8 -4.71,-2.63 -12.69,-7.15 -17.39,-9.25 -32.36,-14.39 -54,-21.18 -90.46,-26 -9.55,-1.26 -19.97,-1.77 -29.81,-1.78 -0.81,-0 -1.46,-0.04 -2.25,-0.09l-1.55 0.08z"/>
 </g>
</svg>
