<?xml version="1.0" encoding="UTF-8"?>
<!DOCTYPE svg PUBLIC "-//W3C//DTD SVG 1.0//EN" "http://www.w3.org/TR/2001/REC-SVG-20010904/DTD/svg10.dtd">
<!-- Creator: CorelDRAW -->
<?xml-stylesheet href="Se.css" type="text/css"?>
<svg xmlns="http://www.w3.org/2000/svg" xml:space="preserve" width="2.53603in" height="2.60238in" version="1.0" style="shape-rendering:geometricPrecision; fill: #0890ff; text-rendering:geometricPrecision; image-rendering:optimizeQuality; fill-rule:evenodd; clip-rule:evenodd"
viewBox="0 0 542.56 556.75"
 xmlns:xlink="http://www.w3.org/1999/xlink"
 xmlns:xodm="http://www.corel.com/coreldraw/odm/2003">
 <g id="Layer_x0020_1">
  <metadata id="CorelCorpID_0Corel-Layer"/>
  <path class="fil0" d="M174.16 279.09c0,-40.11 21.49,-71.28 56.15,-88.75 39.23,-19.77 90,-6.31 117.42,27.97 21.69,27.13 27.53,69.3 11.55,101 -2.79,5.52 -5.04,10.25 -8.6,14.95 -18.79,24.83 -43.56,41.19 -81.58,41.19 -38.86,0 -72.34,-25.85 -86.36,-57.11 -4.71,-10.5 -8.57,-24.09 -8.57,-39.25zm17.13 -193.44c-4.62,0.38 -20.39,9.29 -24.58,11.82 -4.08,2.47 -7.14,4.33 -10.97,6.88l-10.85 7.71c-7.94,0 -66.06,-28.55 -74.95,-28.55 -6.81,0 -10.57,4.3 -13.1,9.03 -7.93,14.85 -16.49,28.77 -25.14,43.38l-16.48 28.49c-2.84,5.22 -5.51,9.32 -8.34,14.5 -2.85,5.23 -6.89,9.41 -6.89,15.95 0,3.32 3.03,8.44 4.88,10.11l8.47 6.52c10.79,8 41.21,33.29 50.88,39.77 -2.44,29.31 -2.44,24.94 0,54.25 -2.78,1.86 -5.67,4.34 -8.4,6.59 -15.07,12.4 -30.98,23.7 -46.07,36.02 -3.07,2.5 -5.95,4.12 -7.89,7.82 -4.22,8.06 0.82,14.88 4.77,21.45l20.94 36.16c1.48,2.71 2.53,4.62 4.12,7.3l24.9 42.91c1.69,3.07 2.28,4.3 4.96,6.47 1.36,1.1 6.45,3.03 8.39,3.03 5.2,0 54.62,-20.99 63.32,-24.47 8.03,-3.21 8.96,-5.77 15.2,-1.23 8.47,6.15 17.81,12.17 27.35,16.91 3.26,1.62 12.07,6.38 15.47,6.66 0,4.16 0.92,8.15 1.47,12.09 0.55,3.95 1.06,7.53 1.7,11.87l6.78 47.47c0.96,7.33 4.44,14.23 12.9,14.23l114.21 0c5.26,0 8.96,-3.32 10.97,-6.87 2.97,-5.25 8.32,-51.17 9.77,-61.61 0.38,-2.74 1.52,-13.54 2.28,-15.56 0.83,-2.22 -0.23,-0.97 2.12,-2.16l9.35 -4.21c11.79,-5.9 22.44,-12.99 33.18,-20.4 3.69,-2.55 8.89,1.12 12.67,2.63 8.89,3.55 58.38,24.68 64.55,24.68 10.46,0 16.65,-16.31 21.11,-23.86l41.29 -71.48c1.54,-2.6 2.74,-4.61 4.22,-7.2 7.44,-13.05 -1.95,-18.3 -10.72,-25.44 -3,-2.44 -5.24,-4.24 -8.39,-6.6 -13.12,-9.87 -29.78,-24.62 -42.51,-33.15 3.12,-6.51 3.12,-47.74 0,-54.25 10.16,-6.8 47.8,-37.23 58.96,-45.97 9.9,-7.74 3.53,-17.99 -1.28,-25.99 -2.94,-4.89 -5.65,-9.68 -8.39,-14.45l-24.8 -43.01c-3.93,-7.03 -16.67,-31.04 -21.82,-35.29 -8.74,-7.2 -22.37,1.71 -33.98,6.34l-44.35 17.77c-2.66,1.12 -3.94,1.95 -6.56,0.15 -15.5,-10.63 -24.21,-16.57 -42.03,-24.4 -2.38,-1.05 -1.9,-0.43 -2.62,-2.37 -1.4,-3.73 -8.14,-56.76 -8.96,-62.42 -1.29,-8.91 -1.88,-21.63 -14.06,-21.63l-114.21 0c-8.45,0 -11.94,6.9 -12.9,14.23 -1.58,12.07 -9.94,62.28 -9.94,71.43z"/>
 </g>
</svg>
